<svg width="218" height="192" viewBox="0 0 218 192" fill="none" xmlns="http://www.w3.org/2000/svg">
<path d="M183.1 59.9055C180.109 60.6366 179.027 62.547 177.957 64.2983C176.033 67.4491 174.351 70.7504 172.504 73.9562C171.513 75.6821 170.499 77.4292 168.836 78.627C167.758 79.403 166.532 79.8629 165.28 78.9827C164.042 78.1153 163.865 76.8366 164.401 75.5559C165.114 73.8596 165.96 72.2058 166.825 70.5838C168.628 67.1955 170.78 63.9664 171.836 60.2388C172.228 58.8499 173.508 57.0159 171.745 56.0084C170.079 55.0518 168.939 56.7586 167.916 57.9268C165.654 60.5156 163.995 63.5073 162.164 66.393C160.793 68.5556 159.414 70.7162 158.022 72.8555C157.318 73.9411 156.441 74.8846 155.292 75.5078C154.349 76.0293 153.355 75.9613 152.453 75.3759C151.482 74.746 151.321 73.7599 151.533 72.7315C151.857 71.1815 152.671 69.8351 153.414 68.4527C155.569 64.4496 158.172 60.6756 159.662 56.3352C160.162 54.8743 161.259 52.7964 159.892 52.0137C158.091 50.9786 157.001 53.1753 156.025 54.4813C153.096 58.3634 151.12 62.8076 148.759 67.0206C147.928 68.507 147.047 69.9721 146.082 71.3799C145.22 72.6245 144.02 73.4873 142.435 72.7852C140.815 72.0746 140.705 70.5966 141.14 69.1463C141.584 67.6535 142.157 66.1926 142.833 64.7847C144.797 60.6798 146.939 56.6555 148.788 52.5039C149.346 51.2465 150.738 49.2514 149.042 48.3775C147.515 47.5821 146.433 49.6366 145.536 50.8452C142.639 54.7442 140.648 59.1757 138.198 63.3484C137.192 65.0616 136.136 66.7621 134.924 68.3247C134.02 69.4865 132.731 70.3091 131.194 69.3758C129.837 68.5507 129.966 67.1682 130.453 65.9384C131.339 63.6908 132.34 61.49 133.347 59.2997C134.779 56.2061 136.367 53.1699 137.675 50.0275C138.46 48.151 139.501 46.1855 138.539 43.8189C136.132 44.5607 135.025 46.4287 134.013 48.2394C131.785 52.2064 129.758 56.2774 127.586 60.2763C126.644 62.0234 125.628 63.743 124.522 65.3861C123.476 66.936 121.917 67.7903 120.119 66.891C118.504 66.0913 118.258 64.4712 118.664 62.8067C119.071 61.1422 119.789 59.6007 120.61 58.0847C122.311 54.9594 123.947 51.8087 125.561 48.6346C126.466 46.8514 127.115 44.977 127.242 42.7293C125.762 42.8012 125.493 43.9865 125.02 44.8685C122.563 49.3551 118.893 51.2141 113.711 50.7404C101.343 49.5998 89.0437 48.0075 76.8876 45.4059C72.7052 44.5061 68.6032 43.248 64.8128 41.1757C58.5203 37.7311 55.5938 32.3785 56.1078 25.3259C56.4981 19.9993 58.1593 15.008 61.2999 10.6022C65.3339 4.93267 70.6143 2.95298 77.3493 4.69708C82.9303 6.14413 87.888 9.00332 92.9155 11.6908C101.325 16.2045 109.549 21.1041 118.641 24.2205C119.989 24.6829 121.355 25.1051 122.711 25.5337C123.859 25.8922 124.902 25.9094 125.879 24.9998C130.021 21.1052 135.167 20.8219 140.341 21.5097C155.882 23.5775 170.708 28.071 184.677 35.2426C187.334 36.6086 189.794 38.3308 192.063 40.3117C197.05 44.6828 198.234 50.0329 196.198 56.165C195.532 58.1793 194.718 60.2106 193.596 61.9938C190.027 67.6443 186.312 73.1951 182.588 78.7437C181.64 80.1558 180.44 81.4152 178.877 82.2144C177.8 82.7655 176.704 82.9244 175.649 82.1566C174.557 81.3612 174.53 80.2734 174.79 79.086C175.26 76.9508 176.512 75.191 177.522 73.3166C179.348 69.9433 181.385 66.6675 182.525 62.9695C182.768 62.1744 182.827 61.3241 183.081 59.9098L183.1 59.9055ZM128.876 49.5342C130.859 49.5875 130.795 47.6706 131.553 46.6253C132.892 44.7701 134.101 42.8195 136.151 41.6641C139.022 40.0382 141.258 41.3172 141.421 44.5743C141.516 46.3279 140.997 47.9373 140.369 49.5466C138.663 53.923 136.591 58.136 134.455 62.3152C133.785 63.6255 132.985 64.9125 133.095 67.2196C135.165 64.898 136.023 62.6526 137.112 60.5725C138.959 57.0423 140.677 53.4526 142.611 49.9711C143.721 47.9865 145.138 46.1419 147.337 45.1859C150.374 43.8717 152.938 45.6469 152.55 48.9378C152.358 50.6109 151.852 52.3135 151.139 53.8296C149.261 57.8115 147.186 61.7086 145.201 65.646C144.575 66.8864 143.563 68.0482 144.121 69.7914C145.416 68.691 145.906 67.3446 146.583 66.117C148.627 62.3747 150.664 58.6302 152.821 54.9431C153.818 53.2278 155.011 51.5973 156.684 50.4292C158.028 49.4943 159.481 48.9199 161.052 49.8977C162.445 50.7588 162.686 52.1795 162.526 53.6532C162.317 55.6464 161.782 57.576 160.857 59.3634C159.094 62.7707 157.243 66.1377 155.52 69.5642C154.893 70.813 153.755 72.0067 154.216 73.9236C156.18 72.9994 156.946 71.4516 157.803 70.0437C159.863 66.6386 161.838 63.1762 163.898 59.771C165.158 57.6889 166.697 55.7935 168.614 54.2988C169.973 53.2325 171.545 52.5075 173.333 53.6656C175.027 54.7642 175.394 56.2974 174.958 58.1167C174.657 59.3571 174.37 60.6188 173.91 61.8104C172.619 65.1372 170.807 68.1989 169.146 71.3433C168.257 73.0225 166.776 74.5448 166.895 76.8901C168.868 76.2203 169.546 74.5877 170.397 73.1692C172.51 69.6241 174.496 66.0111 176.632 62.4809C177.661 60.7826 178.86 59.1627 180.616 58.0964C181.778 57.3862 183.023 57.1023 184.256 57.8425C185.519 58.6082 185.724 59.8848 185.536 61.2164C185.187 63.6252 184.435 65.9152 183.347 68.1033C181.903 70.9954 180.474 73.9002 178.972 76.9492C180.107 76.8901 180.484 76.2455 180.817 75.7069C184.121 70.3957 187.652 65.2223 190.389 59.5717C195.176 49.6931 194.075 45.2739 184.596 39.8355C171.058 32.0597 156.347 27.6849 140.843 26.0137C137.29 25.6314 133.49 25.5481 130.52 27.825C126.475 30.933 122.389 30.6249 118.025 29.0042C116.025 28.2617 113.97 27.6316 111.991 26.8403C102.976 23.2298 94.4157 18.6695 85.8296 14.1748C82.2986 12.3294 78.81 10.3865 74.9377 9.25784C71.4606 8.24582 68.7226 9.22928 66.6302 12.0047C63.4681 16.2069 61.6877 20.9162 61.631 26.245C61.5861 30.5495 63.5479 33.58 67.2936 35.542C69.8254 36.8677 72.5057 37.816 75.2792 38.5713C88.9874 42.2631 103.091 43.2514 117.113 44.8503C119.202 45.0924 120.702 44.4395 121.865 42.7476C122.921 41.2273 124.048 39.7517 125.556 38.6323C126.843 37.6741 128.253 36.8006 129.866 37.7169C131.497 38.6375 131.577 40.3063 131.187 41.8669C130.535 44.4792 129.694 47.0534 128.955 49.689C128.732 50.183 128.467 50.6664 128.313 51.1775C128.205 51.5379 127.869 51.9768 128.382 52.4201C128.549 51.9303 128.734 51.5528 128.795 51.1627C128.882 50.6347 128.873 50.0919 128.898 49.5575L128.876 49.5342Z" fill="#F8F7FF"/>
<path d="M33.3583 149.86C31.0777 149.155 29.5497 148.765 28.0788 148.217C22.1061 145.988 17.872 142.039 16.1197 135.781C14.4654 129.89 12.7474 124.001 11.3629 118.043C9.49634 109.999 9.45703 101.944 12.3076 94.0691C12.8332 92.6145 13.4075 90.9649 14.4795 89.9621C16.9485 87.6681 17.4711 85.2127 16.546 82.0445C14.7854 76.037 17.6881 71.7519 22.1426 68.1606C23.7032 66.9013 25.4041 65.8392 27.2477 65.074C34.7942 61.939 42.6157 59.8367 50.7571 58.9856C53.3257 58.7167 55.8566 58.997 58.3836 59.6908C61.1741 60.4504 62.8011 62.1449 63.2967 64.9716C63.4953 66.0933 63.6281 67.2257 63.8926 68.3368C64.5623 71.1169 65.3911 73.4771 68.6092 74.7669C72.1631 76.1945 74.0213 79.7127 75.7221 83.0294C79.8282 91.0369 81.6039 99.6612 82.0137 108.548C82.2697 114.216 82.3684 119.863 83.0939 125.531C84.0163 132.69 81.706 138.834 75.0568 142.572C61.7753 150.051 47.6458 152.642 33.3583 149.86ZM65.7017 76.2486C64.376 80.9813 61.7462 84.0641 57.8724 85.9803C49.3474 90.2136 40.362 92.8182 30.7879 92.9694C27.9492 93.0177 25.1124 92.7331 22.4446 91.4455C18.293 89.4453 17.8937 89.5979 16.3572 93.9086C15.7448 95.6388 15.3045 97.475 15.1043 99.2901C13.8527 110.636 15.7178 121.688 18.5624 132.616C20.603 140.432 26.1504 144.547 33.737 145.846C47.308 148.17 60.0946 145.46 72.1596 139.056C76.7086 136.641 79.1125 132.871 79.1842 127.699C79.204 126.137 79.2536 124.563 79.0609 123.019C78.1276 115.543 77.1964 108.057 76.1059 100.595C75.2206 94.518 73.7129 88.5826 70.9689 83.0413C69.779 80.645 68.5444 78.2466 65.6953 76.238L65.7017 76.2486ZM25.5708 76.026C26.8903 76.058 28.6094 76.2618 30.2943 76.1327C38.5506 75.5085 46.0953 72.7785 53.0137 68.2885C53.725 67.8263 54.3938 67.2815 55.0031 66.6857C55.6931 66.02 56.6528 65.3585 56.093 64.2007C55.6651 63.31 54.6856 63.3629 53.8505 63.3076C53.2916 63.2672 52.7201 63.3498 52.1444 63.3773C43.6349 63.7492 35.6096 65.9808 28.0298 69.7922C26.6472 70.4832 25.4008 71.4606 24.163 72.404C23.526 72.8937 22.6171 73.4597 22.8326 74.4055C23.0886 75.5506 24.2594 75.6356 25.5793 76.0281L25.5708 76.026ZM46.5572 75.9572C44.0021 77.0764 40.7764 76.7218 39.72 78.6746C38.8312 80.3178 39.8983 83.0258 40.0979 85.265C40.1279 85.5428 40.1112 85.827 40.1306 86.1111C40.2359 87.3898 40.9162 87.8119 42.1376 87.477C43.0872 87.2185 44.0559 86.9917 45.0011 86.7141C47.6862 85.9427 48.6804 84.2747 47.984 81.7103C47.5128 79.9438 47.0968 78.1732 46.5487 75.9551L46.5572 75.9572ZM50.5469 84.5033C52.4825 84.3828 53.92 83.3991 55.4343 82.6508C56.1968 82.2735 57.0058 81.7817 56.8158 80.7341C56.3138 77.8969 56.309 74.9494 55.28 71.9806C53.2114 72.9959 51.5697 73.8205 49.9173 74.6155C49.0338 75.0437 48.5861 75.7158 48.8632 76.6679C49.605 79.2317 49.5204 81.9946 50.5469 84.5033ZM36.8005 78.6486C35.4536 78.8711 33.9134 79.0723 32.4029 79.4071C32.1353 79.4664 31.7767 80.0707 31.8047 80.393C32.0768 82.9207 32.4213 85.4483 32.7784 87.9611C32.8126 88.1859 33.0955 88.4998 33.3187 88.5465C35.0252 88.9454 36.7695 88.7591 38.2945 88.0765C39.6559 87.4703 38.86 86.1003 38.7102 85.0358C38.49 83.4942 38.1762 81.9653 37.9921 80.4237C37.8979 79.6794 37.7507 79.039 36.792 78.6465L36.8005 78.6486ZM24.8171 79.0454C24.3939 80.9219 25.2115 82.6757 25.449 84.4739C26.0395 88.9461 26.1182 88.9567 30.7516 88.2301C30.7498 86.2114 29.7707 84.4173 29.3185 82.5025C28.5655 79.3323 28.5252 79.3492 24.8171 79.0454ZM58.1565 80.7174C61.5651 76.6487 62.0367 71.865 59.9272 67.6895C58.9765 69.074 56.9649 69.6801 57.1368 71.7052C57.3645 74.447 57.7495 77.174 58.1565 80.7174ZM23.9555 87.0564C23.4204 85.1118 22.9965 83.9158 22.7637 82.6774C22.4926 81.3033 22.4382 79.8932 22.1862 78.5149C22.0922 78.0229 21.8132 77.3316 21.0889 77.5202C20.7617 77.6007 20.3881 78.012 20.278 78.3449C19.5386 80.6922 21.1232 84.7637 23.9576 87.0479L23.9555 87.0564Z" fill="#F8F7FF"/>
<path d="M56.8346 124.04C57.0012 125.037 57.1465 125.866 57.2641 126.697C57.9355 131.243 56.5734 133.408 52.2144 134.591C50.9845 134.923 49.7056 135.163 48.435 135.26C44.6235 135.552 42.8866 134.551 41.6742 130.87C40.7814 128.151 39.7363 126.151 36.3585 126.84C35.7106 126.976 34.903 126.81 34.2759 126.536C30.3393 124.833 29.7602 121.328 29.7101 117.657C29.6623 114.267 30.1183 111.029 33.9055 109.604C34.5724 109.356 35.2585 109.14 35.9553 109.026C37.5657 108.761 37.9006 107.89 37.8035 106.325C37.454 100.597 38.8444 99.1149 44.6232 98.4669C49.0529 97.9778 52.891 98.8096 55.2768 103C56.2749 104.754 57.8246 105.528 59.6907 106.048C65.1102 107.563 66.8231 110.144 66.2736 115.71C65.7621 120.907 63.6244 122.96 58.0666 123.627C57.7967 123.658 57.544 123.803 56.8324 124.048L56.8346 124.04ZM47.3446 102.543C46.7772 102.465 46.214 102.369 45.6467 102.327C41.7134 102.021 40.9195 102.85 41.3842 106.777C41.8061 110.369 40.9807 111.614 37.3971 112.62C35.7849 113.074 33.8682 113.01 33.4198 115.204C33.1343 116.602 33.0442 118.012 33.2368 119.447C33.6882 122.777 34.5111 123.496 37.9277 123.447C41.9775 123.395 42.7408 123.919 44.151 127.785C44.3917 128.449 44.6473 129.125 44.8094 129.814C45.2125 131.492 46.3392 132.043 47.9604 132.06C52.3375 132.108 54.4608 130.583 54.58 126.198C54.6766 122.663 56.0985 120.802 59.2207 119.473C62.2622 118.178 62.9193 116.414 62.5017 112.877C62.1868 110.194 61.2806 109.049 58.6952 109.494C54.629 110.191 52.2561 108.445 50.583 105.09C49.9103 103.733 48.8938 102.813 47.3531 102.545L47.3446 102.543Z" fill="#F8F7FF"/>
<path d="M172.68 98.1433C152.35 103.18 129.089 113.895 109.766 127.174C102.348 132.302 92.0915 142.284 89.5273 146.771C88.7947 148.145 88.3368 148.237 87.1462 147.229C82.3842 143.2 81.3768 152.541 85.9557 159.043C87.5126 161.332 89.161 163.347 89.6189 163.53C89.9852 163.622 91.1757 164.629 92.0915 165.636C93.923 167.651 95.7546 167.193 95.7546 164.721C95.8462 163.805 96.5788 164.538 97.4946 166.369C98.5019 168.109 100.334 170.582 101.707 171.864C103.813 173.878 104.821 174.153 110.132 173.97C114.803 173.787 116.543 173.329 117.825 171.955C119.657 170.032 121.03 169.757 137.514 168.201C143.101 167.651 149.419 166.735 151.709 166.003L155.738 164.721L150.518 165.27C146.947 165.545 144.199 165.27 141.727 164.263C139.804 163.439 137.331 162.981 136.415 163.072C135.5 163.255 134.034 162.614 133.119 161.607C132.02 160.325 131.562 160.233 131.195 161.058C130.921 161.699 130.646 160.966 130.646 159.318C130.554 157.394 130.005 156.295 128.906 156.021C128.082 155.746 128.814 155.654 130.554 155.838C132.661 155.929 133.851 156.57 134.034 157.578C134.675 160.874 135.591 158.768 135.316 154.555C134.859 148.969 137.881 142.925 144.199 136.423L148.412 132.119L144.291 135.049C139.712 138.255 134.95 142.101 136.782 141.185C137.331 140.91 137.881 140.91 137.881 141.185C137.881 142.192 133.851 145.214 132.661 145.306C131.195 145.306 131.104 148.969 132.477 148.969C132.935 148.969 133.119 149.427 132.752 149.977C132.477 150.526 131.928 150.618 131.562 150.251C130.737 149.061 127.807 148.786 127.807 149.793C127.807 150.343 127.166 150.526 126.433 150.251C125.334 149.793 125.243 149.336 126.067 148.42C127.899 146.13 125.334 146.954 122.862 149.427C121.58 150.709 119.84 151.717 118.924 151.717C117.733 151.625 118.191 150.801 120.939 148.42L124.602 145.214L118.924 148.603C115.719 150.434 113.154 152.449 113.154 153.09C113.154 153.731 111.048 154.739 108.392 155.38C105.737 156.021 102.898 156.845 102.073 157.303C101.066 157.852 100.15 157.669 99.4177 156.753C98.0441 155.105 100.425 150.984 105.553 146.13C117.55 134.866 148.595 117.192 163.065 113.345C167.094 112.246 171.124 111.147 172.039 110.873C173.047 110.598 173.596 110.873 173.596 111.697C173.596 112.429 170.208 115.268 166.087 117.924L158.577 122.869L163.98 123.327C169.017 123.785 169.658 123.602 172.406 121.221C174.512 119.206 175.611 117.008 176.801 112.429C178.358 106.202 182.388 97.6854 183.853 97.6854C184.311 97.6854 184.402 97.2275 184.128 96.7696C183.395 95.5791 182.754 95.5791 172.68 98.1433Z" fill="#F8F7FF"/>
<path d="M194.201 98.6007C189.256 100.615 183.67 109.956 183.67 116.092C183.67 119.664 186.051 124.792 188.615 126.532C193.285 129.92 200.245 127.173 202.993 120.946C206.198 113.345 204.275 101.256 199.421 98.6923C197.223 97.5017 196.674 97.5017 194.201 98.6007Z" fill="#F8F7FF"/>
<path d="M157.295 130.928C151.159 133.401 144.383 138.987 141.086 144.207C138.338 148.419 136.965 155.654 138.705 156.661C139.529 157.211 149.328 150.068 152.075 146.863C154.273 144.207 165.262 135.232 166.178 135.232C168.01 135.232 167.277 142.558 165.171 145.581C162.79 149.06 159.218 152.815 160.317 150.8C160.775 150.068 160.042 150.434 158.76 151.716C155.372 155.013 149.145 158.127 144.566 158.768C140.078 159.409 139.712 160.05 142.917 161.79C145.848 163.347 153.998 162.522 158.76 160.05C162.79 158.035 168.651 152.266 170.757 148.236C172.497 144.939 173.596 138.987 172.955 135.965C172.68 134.591 171.49 132.393 170.299 131.111C167.643 128.181 163.889 128.181 157.295 130.928Z" fill="#F8F7FF"/>
</svg>
