<svg width="351" height="329" viewBox="0 0 351 329" fill="none" xmlns="http://www.w3.org/2000/svg">
<path d="M15.1887 56.4192C10.7204 56.5348 5.74902 53.385 2.27881 42.7573C1.47148 33.2338 2.28913 20.1318 6.43325 11.3271C8.50779 6.91942 11.2842 3.859 14.8398 2.62466C18.3608 1.4023 23.1482 1.79841 29.6512 5.39444C36.2203 9.59315 38.6998 16.3864 38.3762 23.9196C38.0494 31.5269 34.8439 39.6846 30.2932 45.9714C25.6768 52.3488 20.0676 56.293 15.1887 56.4192Z" stroke="#F8F7FF" stroke-width="4"/>
<path d="M105.147 120.489C104.742 116.551 107.658 112.86 111.344 111.418C113.143 110.714 114.891 110.653 116.277 111.207C117.589 111.731 118.859 112.918 119.59 115.328C119.96 116.877 119.495 118.448 118.3 119.93C117.079 121.444 115.19 122.721 113.142 123.457C111.072 124.201 109.102 124.304 107.691 123.819C106.445 123.391 105.453 122.46 105.147 120.489Z" stroke="#F8F7FF" stroke-width="4"/>
<path d="M88.6885 104.353C83.7931 107.556 80.7544 107.572 79.1186 106.794C77.475 106.012 76.3293 103.982 76.2509 100.998C76.0928 94.9802 80.3052 87.8176 88.1325 87.6274C90.0732 87.7845 91.1842 88.5585 91.86 89.5486C92.6024 90.6364 92.9778 92.2265 92.9084 94.1628C92.7692 98.0486 90.8876 102.32 88.6885 104.353Z" stroke="#F8F7FF" stroke-width="4"/>
<path d="M52.7979 71.2252C49.476 68.9206 48.1264 65.5115 48.1828 61.774C48.2415 57.8879 49.8398 53.7279 52.3176 50.4963C54.8187 47.2343 57.9615 45.2287 60.9219 45.0706C63.6875 44.9229 66.9457 46.3671 69.9179 51.4718C72.2636 56.6141 70.8187 62.4246 67.1931 66.5868C63.6109 70.6992 58.1834 72.881 52.7979 71.2252Z" stroke="#F8F7FF" stroke-width="4"/>
<path d="M135.71 150.451L135.72 150.475L135.73 150.5C136.412 152.121 135.717 153.824 134.327 154.788C133.65 155.257 132.926 155.454 132.299 155.399C131.753 155.352 131.147 155.105 130.574 154.421C130.324 153.878 130.312 153.189 130.628 152.366C130.973 151.465 131.661 150.575 132.484 149.951C133.334 149.306 134.078 149.125 134.523 149.18C134.794 149.213 135.285 149.361 135.71 150.451Z" stroke="#F8F7FF" stroke-width="4"/>
<path d="M137.278 243.945C134.659 244.964 132.361 246.277 130.088 247.778C126.518 250.135 120.13 250.383 115.917 247.043C115.439 249.263 113.367 250.313 112.537 252.374C111.319 255.398 107.594 256.076 104.594 254.128C102.602 252.834 101.535 250.73 100.093 248.955C99.7149 248.49 99.3997 247.974 99.0178 247.513C96.1438 244.043 96.4383 240.253 99.6751 236.997C102.992 233.661 106.61 230.672 110.142 227.582C110.938 226.886 111.613 226.097 112.321 225.325C114.395 223.065 116.744 221.427 120.067 222.108C120.835 222.265 121.517 222.598 122.071 223.071C123.01 223.873 123.609 223.489 124.124 222.655C124.865 221.456 125.749 220.383 126.745 219.39C127.427 218.71 128.184 218.078 129.071 217.775C132.763 216.512 135.425 213.873 138.033 211.177C145.017 203.957 151.844 196.59 158.327 188.911C158.391 188.835 158.455 188.757 158.529 188.69C160.467 186.902 160.997 185.209 159.935 182.357C157.545 175.938 157.375 169.257 160.968 163.112C162.271 160.884 162.557 158.612 162.919 156.245C163.945 149.541 164.31 142.758 165.383 136.054C165.71 134.012 165.581 131.916 166.687 130.049C166.765 129.918 166.688 129.653 166.612 129.481C165.557 127.106 165.496 124.528 165.075 122.024C165.026 121.731 164.983 121.418 164.847 121.161C162.234 116.197 163.609 111.795 166.775 107.673C167.326 106.956 167.584 106.18 167.678 105.34C168.462 98.3639 171.923 92.9184 177.096 88.3417C183.388 82.7751 190.93 79.9057 198.887 77.8549C206.473 75.8995 214.224 75.2086 221.922 76.4313C238.217 79.0193 250.565 87.2221 256.984 102.932C258.178 105.854 259.683 108.913 258.834 112.326C259.849 114.064 258.815 116.279 260.839 118.022C262.856 119.758 263.429 122.715 263.189 125.516C262.949 128.327 262.943 131.219 261.169 133.666C260.756 134.236 261.126 134.865 261.279 135.393C262.473 139.512 263.756 143.605 264.967 147.719C265.769 150.441 267.132 152.977 267.616 155.805C267.661 156.063 267.903 156.321 268.114 156.513C273.171 161.131 274.618 166.993 273.832 173.538C273.659 174.979 273.851 175.743 275.203 176.487C280.023 179.139 283.418 183.26 286.282 187.847C289.509 193.014 293.474 197.419 298.863 200.418C300.435 201.293 301.977 202.222 303.514 203.157C304.86 203.976 305.948 205.083 306.773 206.417C307.593 207.744 308.691 208.556 310.287 208.595C311.641 208.629 312.557 209.336 313.066 210.53C314.517 213.939 315.241 217.57 316.222 221.121C316.578 222.414 315.983 223.608 315.232 224.626C314 226.294 313.188 228.169 312.362 230.042C310.915 233.32 308.671 234.8 305.4 234.613C305.251 234.604 305.046 234.657 304.959 234.579C303.072 232.885 300.514 233.68 298.41 232.803C297.706 232.509 294.906 230.17 294.26 229.295C293.754 229.477 293.733 229.979 293.56 230.374C293.27 231.04 292.835 231.604 292.186 231.908C287.684 234.016 280.948 234.147 278.095 228.698C277.551 227.661 276.745 226.877 275.726 226.26C272.856 224.522 272.066 221.875 273.387 218.796C274.07 217.205 275.113 215.879 276.29 214.642C278.328 212.5 280.54 210.554 282.929 208.812C283.246 208.58 283.629 208.413 283.82 207.728C279.937 204.5 274.958 202.701 271.304 198.902C270.009 200.283 269.751 201.9 269.348 203.381C267.588 209.855 268.022 216.213 270.53 222.456C271.272 224.302 271.78 226.248 272.311 228.171C272.892 230.277 272.219 232.288 271.324 234.105C270.785 235.202 270.995 235.752 271.651 236.575C274.596 240.27 277.113 244.217 278.332 248.853C279.683 253.991 279.091 258.98 276.768 263.694C274.038 269.235 270.152 273.897 265.358 277.806C263.488 279.331 261.946 281.179 260.637 283.195C259.562 284.852 259.717 287.355 260.893 288.857C261.686 288.562 261.99 287.771 262.476 287.183C264.034 285.298 265.459 283.297 267.666 282.055C272.458 279.359 276.099 281.3 276.456 286.764C276.465 286.9 276.545 287.031 276.652 287.331C278.344 286.27 280.071 285.733 282.057 286.382C284.427 287.156 285.868 288.715 286.387 291.088C286.633 292.213 287.031 292.883 288.239 293.276C290.368 293.969 291.308 296.604 290.456 298.924C290.167 299.712 289.831 300.483 289.493 301.318C289.779 301.484 289.982 301.608 290.192 301.721C292.706 303.077 293.206 305.906 291.229 307.999C289.584 309.74 287.519 310.676 285.107 310.758C280.648 310.909 276.426 309.579 272.138 308.658C266.678 307.485 261.256 306.044 255.595 306.266C253.514 306.348 251.492 306.934 249.351 306.646C245.706 306.155 241.284 302.463 240.83 298.885C240.495 296.251 241.461 293.721 242.799 291.476C245.953 286.179 248.616 280.662 250.794 274.899C251.627 272.693 252.11 270.41 252.624 268.122C253.55 263.996 254.447 259.852 256.627 256.072C253.712 255.26 250.747 255.426 247.885 254.253C247.22 254.86 246.455 255.555 245.693 256.253C237.44 263.814 227.709 267.508 216.54 266.905C208.893 266.493 201.931 263.778 195.657 259.382C194.838 258.809 194.137 258.514 193.218 259.057C192.456 259.508 191.589 259.481 190.737 259.486C183.991 259.53 177.246 259.593 170.546 258.567C167.737 258.136 164.913 257.799 162.094 257.433C161.757 257.389 161.41 257.427 161.128 257.427C160.872 257.613 160.875 257.828 160.947 258.008C163.386 264.073 161.992 269.838 159.702 275.589C158.248 279.24 156.313 282.721 155.699 286.686C155.137 290.308 154.84 293.921 155.518 297.558C155.6 297.999 155.573 298.479 155.994 298.77C157.112 299.543 156.778 300.248 156.02 301.101C154.522 302.788 154.289 305.1 153.242 307.024C152.193 308.951 152.028 311.096 151.845 313.253C151.568 316.514 150.506 319.287 146.918 320.356C144.734 321.008 142.858 320.402 141.093 319.258C138.642 317.666 136.996 315.316 135.526 312.864C133.141 308.889 129.892 305.747 126.186 303.056C123.948 301.431 121.858 299.661 120.097 297.533C117.249 294.092 116.905 289.473 119.702 286.753C121.111 285.383 122.493 283.88 124.086 282.734C126.003 281.356 128.197 281.731 130.178 282.857C130.876 283.254 131.395 283.286 132.11 282.965C134.746 281.783 137.878 282.78 139.426 285.291C140.364 286.813 141.277 288.355 141.727 290.055C142.727 290.07 142.889 289.438 143.041 288.882C144.189 284.701 144.549 280.467 144.176 276.128C143.671 270.254 143.206 264.334 144.315 258.498C145.377 252.908 148.464 248.556 153.207 245.322C158.821 241.495 164.737 238.339 171.312 236.516C172.038 236.315 172.237 235.856 172.223 235.183C172.178 233.119 172.96 231.307 173.872 229.506C175.11 227.062 175.204 224.311 175.829 221.701C176.943 217.049 175.577 212.694 174.306 208.341C173.71 206.299 173.189 204.205 172.063 202.178C170.611 202.817 169.589 203.939 168.457 204.848C160.704 211.071 152.25 216.18 143.425 220.695C142.011 221.418 141.303 222.118 141.528 223.879C141.819 226.157 140.38 227.794 138.775 229.26C136.799 231.065 136.854 231.075 138.132 233.506C138.71 234.604 139.324 235.681 139.768 236.863C141.116 240.462 139.716 242.409 137.278 243.945ZM184.58 134.293C185.929 134.283 187.284 134.187 188.626 134.279C196.838 134.843 203.491 138.218 208.105 145.211C208.643 146.027 209.013 146.897 208.034 147.576C207.033 148.27 206.294 147.759 205.683 146.832C203.839 144.033 201.491 141.749 198.531 140.144C192.613 136.935 186.453 135.98 180.102 138.641C172.386 141.874 168.224 147.964 166.8 156.036C166.162 159.651 166.922 162.949 169.412 165.803C171.011 167.635 172.795 169.185 174.931 170.34C175.786 170.802 176.238 171.485 175.7 172.432C175.153 173.396 174.345 173.258 173.497 172.824C171.387 171.744 169.532 170.349 167.906 168.61C166.512 167.119 165.563 165.308 164.339 163.657C163.444 164.319 163.142 165.184 162.82 166.004C159.931 173.359 161.351 180.276 165.325 186.738C168.611 192.082 173.66 195.582 179.098 198.456C187.895 203.104 197.403 205.299 207.26 205.895C216.091 206.428 224.803 205.362 233.343 203.026C241.055 200.917 248.295 197.718 255.022 193.395C260.287 190.01 264.985 185.996 268.158 180.499C271.796 174.197 272.347 167.776 268.419 161.35C267.447 159.758 266.103 158.539 264.48 157.782C263.817 158.189 263.798 158.738 263.601 159.181C262.329 162.038 260.458 164.377 257.808 166.083C256.921 166.655 256.063 167.032 255.351 165.955C254.653 164.899 255.27 164.195 256.156 163.612C258.216 162.257 259.773 160.446 260.69 158.166C261.219 156.851 262.049 155.492 261.721 154.05C261.382 152.56 260.784 151.114 260.067 149.728C255.008 139.954 245.989 135.194 235.336 136.596C228.671 137.473 223.286 140.95 219.299 146.44C218.69 147.279 218.033 147.998 216.971 147.244C215.887 146.476 216.402 145.598 216.994 144.781C220.636 139.762 225.383 136.295 231.343 134.498C233.056 133.981 234.808 133.651 236.635 133.326C236.263 132.843 235.831 132.89 235.452 132.858C227.793 132.219 220.154 131.555 212.431 131.811C205.387 132.044 198.362 132.357 191.369 133.187C189.008 133.467 186.579 133.422 184.04 134.31C179.849 134.617 175.858 135.977 171.742 136.647C169.251 137.053 167.785 137.974 167.922 140.789C167.984 142.067 167.397 143.368 167.696 144.778C168.328 144.552 168.513 144.054 168.829 143.693C170.008 142.344 171.128 140.949 172.518 139.79C175.966 136.914 179.904 135.124 184.58 134.293ZM191.627 232.651C191.162 236.85 190.26 240.853 186.512 243.49C185.604 244.129 186.138 244.712 186.479 245.274C192.194 254.688 200.47 260.64 211.145 263.15C217.915 264.741 224.601 264.233 231.156 261.747C240.992 258.016 248.095 251.4 252.57 241.913C252.761 241.508 252.972 241.122 252.772 240.635C251.134 236.641 250.507 232.374 249.439 228.226C248.304 223.825 247.683 219.316 247.035 214.832C246.501 211.136 245.926 207.438 245.526 203.721C245.39 202.454 244.965 202.012 243.571 202.594C233.931 206.617 223.824 208.595 213.423 208.964C205.435 209.247 197.597 208.076 189.919 205.836C189.362 205.674 188.736 205.172 188.051 205.824C188.113 206.088 188.141 206.387 188.252 206.652C189.81 210.357 190.735 214.232 191.351 218.188C192.086 222.902 192.067 227.637 191.627 232.651ZM202.376 104.435C203.919 104.57 204.743 105.829 205.826 106.668C207.47 107.943 209.329 108.488 211.115 107.389C213.114 106.158 214.968 104.726 217.308 104.158C217.558 104.098 217.77 103.792 217.957 103.565C221.285 99.5225 225.817 97.5507 230.771 96.7833C236.154 95.9495 241.512 96.8451 246.732 98.3149C248.52 98.8184 250.227 99.6122 252.084 100.316C252.114 99.1202 251.499 98.3624 250.99 97.5978C246.952 91.5333 241.803 86.744 235.185 83.5396C226.466 79.318 217.325 78.1651 207.777 79.239C202.131 79.874 196.709 81.3157 191.416 83.2932C183.918 86.0948 177.596 90.4414 173.431 97.4674C172.324 99.3335 171.403 101.314 171.16 103.57C171.847 103.588 172.259 103.275 172.686 103.046C176.503 101.002 180.487 99.5916 184.851 99.1574C191.379 98.5077 197.434 99.1555 202.376 104.435ZM257.131 287.722C256.493 285.599 257.048 283.6 258.115 281.832C259.642 279.301 261.597 277.082 263.891 275.184C267.269 272.392 270.107 269.113 272.493 265.448C275.048 261.522 276.28 257.19 275.949 252.518C275.543 246.805 272.313 242.37 269.036 237.989C268.719 237.565 268.374 237.273 267.774 237.595C264.67 239.264 261.23 240.001 257.906 241.041C256.395 241.514 255.427 242.302 254.85 243.786C254.087 245.747 252.876 247.485 251.763 249.263C251.27 250.049 250.709 250.792 250.132 251.622C251.975 252.472 253.791 252.457 255.548 252.743C257.793 253.109 259.755 252.871 261.637 251.287C263.036 250.109 264.949 249.668 266.859 249.757C267.756 249.799 268.4 250.229 268.384 251.239C268.369 252.165 267.807 252.528 266.935 252.605C263.415 252.915 260.918 254.821 259.101 257.73C257.294 260.622 256.496 263.919 255.876 267.173C254.426 274.784 251.333 281.724 247.832 288.537C246.445 291.236 244.552 293.696 243.918 296.753C243.702 297.795 243.475 298.948 244.143 299.81C246.219 302.492 248.712 304.404 252.436 303.78C253.711 303.566 254.967 303.189 256.286 303.223C262.363 303.381 268.25 304.705 274.125 306.111C277.766 306.983 281.394 307.92 285.197 307.712C286.326 307.651 287.373 307.45 288.281 306.74C288.894 306.261 289.548 305.702 289.127 304.879C288.749 304.139 287.996 304.512 287.38 304.674C285.061 305.283 282.749 305.916 280.422 306.491C279.563 306.702 278.756 306.482 278.513 305.523C278.258 304.51 278.794 303.94 279.795 303.709C280.864 303.462 281.91 303.117 282.978 302.861C285.422 302.274 286.753 300.571 287.553 298.338C287.796 297.66 287.902 296.925 287.352 296.355C286.725 295.705 286.055 296.154 285.425 296.44C282.424 297.804 279.423 299.168 276.428 300.547C275.564 300.945 274.849 300.843 274.402 299.962C273.974 299.117 274.432 298.533 275.112 298.075C275.317 297.937 275.546 297.831 275.771 297.724C277.53 296.888 279.273 296.016 281.057 295.239C282.106 294.782 282.703 294.207 283.148 293.021C283.642 291.706 283.29 290.937 282.564 290.069C281.713 289.05 280.48 288.825 279.423 289.295C277.478 290.16 275.595 291.241 274.283 293.011C272.889 294.892 271.255 296.483 269.09 297.421C268.279 297.773 267.369 297.815 266.895 296.816C266.453 295.885 266.989 295.308 267.761 294.876C267.892 294.802 268.027 294.737 268.158 294.665C271.292 292.946 272.901 290.19 273.498 286.763C273.853 284.721 272.429 283.487 270.474 284.047C268.638 284.572 267.411 285.864 266.219 287.227C264.215 289.521 262.613 292.155 260.365 294.238C258.497 295.969 256.429 297.341 253.72 297.218C252.73 297.173 251.637 296.98 251.647 295.762C251.658 294.545 252.636 294.103 253.771 294.182C256.134 294.346 257.69 293.06 259.111 291.354C258.1 290.381 257.54 289.228 257.131 287.722ZM113.118 240.519C113.223 241.006 113.284 241.508 113.446 241.975C113.608 242.441 114.102 243.161 114.45 242.617C115.41 241.116 116.38 239.628 117.421 238.182C117.533 238.027 117.206 237.554 117.078 237.231C116.244 235.138 116.171 233.062 117.183 230.995C117.945 229.436 119.129 228.629 120.009 229.209C121.458 230.164 120.523 231.129 119.975 232.146C119.273 233.449 119.342 234.862 119.862 236.208C120.367 237.513 121.603 237.089 122.597 237.215C122.993 237.266 123.383 237.366 123.779 237.411C125.137 237.563 125.883 237.02 126.016 235.64C126.107 234.701 126.01 233.745 126.016 232.797C126.021 232.046 126.402 231.551 127.145 231.432C127.952 231.303 128.529 231.725 128.776 232.446C128.966 233.003 128.993 233.623 129.041 234.219C129.393 238.577 127.232 240.698 122.919 240.248C122.066 240.159 121.234 240.226 120.404 240.491C118.55 241.082 117.727 241.978 117.757 243.466C117.783 244.789 118.699 245.891 120.484 246.194C123.697 246.739 126.873 246.699 129.621 244.529C131.045 243.404 132.592 242.516 134.324 241.948C137.335 240.962 137.974 239.249 136.398 236.505C135.403 234.773 134.418 233.035 133.462 231.282C132.929 230.304 132.793 229.388 134.056 228.792C136.883 227.46 139.068 225.682 138.598 222.098C138.386 220.483 139.139 219.525 140.596 218.824C145.913 216.268 151.034 213.363 155.998 210.16C160.88 207.011 165.443 203.445 170.022 199.895C171.559 198.703 171.524 197.416 170.082 196.154C168.88 195.102 167.681 194.036 166.579 192.883C165.244 191.486 164.011 189.99 162.726 188.527C162.548 188.623 162.386 188.661 162.299 188.764C158.362 193.418 154.286 197.948 150.174 202.447C145.959 207.058 141.764 211.686 137.283 216.042C135.592 217.684 133.711 219.094 131.458 219.914C129.649 220.572 128.278 221.743 127.252 223.364C126.881 223.95 126.473 224.561 125.944 224.988C125.044 225.716 124.973 226.355 125.76 227.202C126.449 227.942 126.456 228.77 125.632 229.42C124.754 230.112 124.054 229.642 123.454 228.92C122.719 228.037 122.024 227.117 121.24 226.281C119.771 224.716 117.955 224.461 116.275 225.778C114.263 227.356 112.525 229.237 111.374 231.565C110.577 233.175 110.542 234.822 111.313 236.473C111.904 237.74 112.464 239.022 113.118 240.519ZM171.901 239.416C165.243 241.197 159.341 244.492 153.806 248.503C152.007 249.807 150.591 251.484 149.424 253.367C146.205 258.561 146.491 264.335 146.711 270.082C146.941 276.104 147.85 282.142 146.176 288.103C145.97 288.835 146.177 289.208 146.912 289.427C148.185 289.808 149.194 290.62 150.146 291.529C150.696 292.054 151.215 292.665 152.094 292.994C152.268 287.76 153.301 282.863 155.391 278.214C156.601 275.523 157.556 272.742 158.508 269.952C160.174 265.07 159.322 260.536 156.836 256.172C156.235 255.118 155.406 254.253 154.668 253.311C154.134 252.628 154.258 252.031 154.876 251.474C155.495 250.917 156.13 250.845 156.724 251.463C157.24 252.001 157.725 252.576 158.168 253.176C158.538 253.678 158.925 254.097 159.581 254.178C164.573 254.798 169.57 255.381 174.554 256.056C177.585 256.467 180.636 256.349 183.675 256.526C186.169 256.672 188.689 256.375 191.555 256.26C190.937 255.584 190.624 255.206 190.275 254.866C188.371 253.011 186.531 251.047 185.273 248.73C184.025 246.431 182.632 244.876 179.855 244.344C177.463 243.885 175.851 241.809 174.318 239.951C173.683 239.18 173.04 238.888 171.901 239.416ZM259.499 237.489C261.175 237.01 262.914 236.682 264.514 236.018C267.246 234.884 269.43 233.043 269.281 229.801C269.191 227.846 268.733 225.802 267.957 224.006C266.407 220.415 265.558 216.685 265.331 212.844C265.209 210.789 264.664 208.764 265.123 206.621C265.706 203.904 266.91 201.434 267.715 198.815C268 197.888 268.568 196.887 267.894 195.96C267.016 194.75 266.001 193.639 265.032 192.496C264.688 192.09 264.247 191.796 263.721 192.118C262.521 192.852 261.058 193.102 259.932 193.829C256.445 196.081 252.859 198.148 249.224 200.138C248.469 200.551 248.25 201.102 248.371 201.986C248.91 205.931 249.473 209.875 249.977 213.822C250.89 220.962 252.231 228.003 254.025 234.965C255.107 239.165 255.122 239.161 259.499 237.489ZM143.989 301.557C143.249 303.189 142.321 303.381 141.256 302.068C139.736 300.195 138.94 298.014 139.441 295.644C139.838 293.768 139.526 292.12 138.843 290.42C138.373 289.25 137.65 288.229 137.1 287.113C136.44 285.774 135.373 285.372 134.013 285.558C132.639 285.745 132.127 286.803 131.91 287.974C131.331 291.092 132.172 293.908 133.948 296.465C134.566 297.355 135.149 298.212 133.955 299.009C132.818 299.766 132.223 298.841 131.661 298.072C129.232 294.747 128.462 291.017 129.149 287C129.384 285.628 128.7 285.157 127.592 284.973C125.881 284.688 124.956 285.278 124.379 286.914C123.387 289.73 124.626 291.984 126.235 294.115C126.864 294.949 127.615 295.692 128.329 296.46C128.989 297.171 129.015 297.893 128.354 298.583C127.668 299.299 126.989 298.953 126.362 298.454C126.05 298.205 125.764 297.923 125.485 297.637C123.459 295.563 121.981 293.141 120.951 289.999C120.556 292.189 120.881 293.812 121.939 295.23C123.047 296.714 124.249 298.153 125.79 299.199C131.284 302.927 135.931 307.412 139.175 313.298C140.106 314.986 141.482 316.448 143.418 317.176C146.289 318.256 148.559 316.868 148.819 313.815C148.913 312.72 149.045 311.633 149.166 310.544C149.472 307.781 150.922 305.461 151.932 302.979C152.683 301.136 152.495 299.479 151.562 297.818C150.546 296.01 149.198 294.465 147.647 293.113C145.983 291.662 144.286 291.893 143.079 293.714C142.314 294.869 142.042 296.131 142.239 297.56C142.441 299.029 143.408 300.078 143.989 301.557ZM183.961 241.583C186.753 240.127 187.876 237.551 188.437 234.682C189.023 231.683 189.056 228.63 189.021 225.58C188.941 218.543 187.299 211.85 184.55 205.407C184.244 204.69 183.991 203.885 183.155 203.539C181.229 202.742 179.304 201.942 177.453 201.174C176.134 202.56 176.379 204.017 176.802 205.56C177.671 208.73 178.754 211.854 179.112 215.147C179.724 220.758 179.231 226.2 176.612 231.315C175.79 232.92 175.858 234.772 175.926 236.405C176.054 239.486 180.795 242.444 183.961 241.583ZM270.171 182.8C269.143 184.399 268.126 186.022 266.741 187.332C265.886 188.142 265.978 188.792 266.607 189.648C268.329 191.991 270.28 194.118 272.408 196.096C276.623 200.013 281.793 202.519 286.512 205.692C286.821 205.9 287.173 205.987 287.507 205.817C288.493 205.315 289.656 205.252 290.594 204.759C292.251 203.89 293.668 204.255 295.118 205.105C295.503 205.33 295.857 205.695 296.338 205.604C297.939 205.298 299.56 205.443 301.552 205.466C300.463 204.797 299.73 204.287 298.946 203.874C291.971 200.196 286.826 194.712 282.902 187.938C280.71 184.155 277.555 181.255 273.821 178.975C272.871 178.394 272.338 178.464 271.889 179.569C271.459 180.626 270.823 181.6 270.171 182.8ZM172.642 110.196C170.511 112.264 170.229 114.861 171.227 117.382C172.215 119.877 174.654 120.769 177.179 120.995C179.915 121.241 182.661 121.138 185.35 120.425C188.819 119.505 192.369 118.764 195.054 116.099C198.305 112.871 197.575 108.92 193.3 107.39C188.625 105.716 183.819 105.675 179.036 107.007C176.782 107.634 174.498 108.262 172.642 110.196ZM284.078 230.054C285.88 230.413 287.645 230.281 289.398 229.734C290.744 229.313 291.066 228.651 290.593 227.086C290.172 225.692 289.422 225.217 288.134 225.759C286.97 226.248 285.911 226.093 284.79 225.714C283.194 225.176 282.125 223.966 281.066 222.782C279.934 221.516 279.9 219.933 281.076 218.712C283.304 216.399 285.795 214.41 288.814 213.168C289.856 212.739 290.665 213.019 291.356 213.812C293.083 215.798 293.722 218.052 292.976 220.627C292.754 221.393 292.481 222.145 292.273 222.914C292.075 223.646 293.019 225.742 293.658 225.844C294.88 226.037 295.453 225.219 295.83 224.214C295.934 223.936 296.036 223.651 296.09 223.36C296.52 221.037 297.255 218.812 298.364 216.731C299.062 215.421 298.962 214.243 298.084 213.102C296.837 211.48 295.597 209.851 294.304 208.266C293.549 207.342 292.627 207.014 291.577 207.883C291.267 208.14 290.899 208.494 290.523 208.367C289.154 207.904 288.222 208.773 287.236 209.387C284.298 211.214 281.587 213.347 279.177 215.828C277.827 217.219 276.464 218.623 275.828 220.556C275.424 221.784 275.643 222.849 276.742 223.41C278.768 224.442 280.009 226.152 281.154 227.981C281.799 229.011 282.672 229.685 284.078 230.054ZM303.235 227.295C304.32 225.158 305.268 222.936 306.533 220.912C307.619 219.174 307.712 217.644 306.919 215.771C306.065 213.749 305.574 211.567 303.89 209.998C302.317 208.533 300.43 208.317 298.108 208.551C298.93 209.597 299.59 210.398 300.208 211.23C301.752 213.311 302.298 215.474 300.937 217.919C300.213 219.219 299.754 220.642 299.41 222.121C298.983 223.953 298.605 225.834 297.477 227.437C296.928 228.217 297.36 228.927 297.966 229.401C299.805 230.84 301.552 230.445 302.636 228.417C302.801 228.108 302.964 227.799 303.235 227.295ZM227.159 100.797C224.774 101.753 222.561 102.951 220.795 104.898C218.331 107.615 217.875 111.14 219.717 114.293C221.197 116.828 223.513 118.404 226.153 119.449C231.576 121.597 237.159 122.06 242.898 120.84C246.966 119.975 250.625 118.549 253.717 115.539C257.146 112.2 255.965 106.888 252.921 104.799C245.061 99.4067 236.511 98.2091 227.159 100.797ZM193.097 124.69C186.24 126.954 179.256 127.522 172.131 126.289C170.694 126.04 169.923 126.651 169.803 128.066C169.736 128.855 170.187 129.388 170.706 129.868C172.795 131.799 175.321 132.056 177.987 131.719C184.018 130.956 189.828 129.416 195.312 126.746C196.573 126.132 197.723 125.344 198.789 124.436C199.353 123.955 199.817 123.396 199.288 122.639C198.772 121.9 198.191 122.489 197.707 122.706C196.253 123.359 194.879 124.194 193.097 124.69ZM251.341 123.24C251.637 122.83 251.724 122.423 251.298 122.044C250.835 121.632 250.343 121.851 249.891 122.039C247.209 123.159 244.432 124.112 241.562 124.373C234.582 125.007 227.819 124.176 221.643 120.5C221.318 120.306 221.013 119.976 220.228 120.379C222.623 123.363 225.796 125.072 229.117 126.35C236.96 129.369 244.453 128.92 251.341 123.24ZM196.005 105.289C200.815 108.168 200.932 113.705 198.265 116.894C197.008 118.397 195.588 119.757 193.795 120.6C188.304 123.181 182.489 124.331 176.466 123.808C170.678 123.305 167.409 119.382 167.739 113.87C167.834 112.284 168.611 110.928 169.259 109.524C167.915 110.77 167.222 112.376 166.788 114.071C165.747 118.136 167.715 121.515 171.672 122.944C174.024 123.793 176.405 124.092 178.873 124.091C186.077 124.089 192.903 122.862 198.663 118.106C200.694 116.428 201.762 114.276 201.958 111.628C202.248 107.697 198.59 104.321 195.443 103.131C190.995 101.449 186.417 101.778 181.863 102.739C180.111 103.109 178.393 103.617 176.767 104.45C183.215 102.572 189.566 102.454 196.005 105.289ZM103.766 239.555C105.376 242.544 107.119 245.439 109.324 248.044C110.352 249.26 111.197 248.646 111.922 247.842C112.559 247.137 113.643 246.351 112.203 245.299C111.429 244.734 110.9 243.935 110.686 242.963C110.009 239.889 108.017 237.299 107.602 234.06C106.192 234.534 105.503 235.654 104.501 236.35C103.408 237.11 103.093 238.111 103.766 239.555ZM312.558 223.369C313.15 222.566 313.429 221.686 313.142 220.699C312.379 218.074 311.576 215.461 310.843 212.828C310.513 211.646 309.86 211.209 308.599 211.539C309.024 213.301 309.659 214.915 310.329 216.515C310.862 217.788 310.808 218.961 310.128 220.222C308.475 223.288 306.918 226.407 305.374 229.531C305.089 230.106 304.572 230.86 305.333 231.43C306.045 231.963 306.853 231.79 307.566 231.308C308.584 230.62 309.249 229.648 309.816 228.567C310.691 226.898 311.125 224.997 312.558 223.369ZM246.305 131.246C246.892 131.353 247.479 131.464 248.068 131.565C250.373 131.962 252.68 132.351 254.984 132.753C255.934 132.919 256.66 132.621 257.102 131.75C257.546 130.872 256.908 130.345 256.406 129.806C255.342 128.665 254.05 127.816 252.725 127.016C252.373 126.803 251.988 126.639 251.599 126.883C249.171 128.407 246.615 129.664 243.899 130.778C244.618 130.924 245.337 131.071 246.305 131.246ZM209.519 118.052C207.175 119.017 205.141 120.293 204.492 123.249C208.962 122.407 213.393 122.436 217.889 122.873C216.351 121.512 216.108 118.516 213.007 119.279C212.642 119.369 212.161 119.033 211.746 118.865C211.061 118.588 210.521 117.98 209.519 118.052ZM255.56 139.376C257.325 140.657 258.559 142.497 260.465 144.212C260.096 141.762 259.383 139.809 258.874 137.808C258.664 136.983 258.193 136.593 257.331 136.446C255.716 136.17 254.125 135.751 252.519 135.416C251.593 135.223 250.656 135.08 249.725 134.911C248.807 134.743 247.89 134.57 246.972 134.399C250.075 135.581 252.866 137.174 255.56 139.376ZM284.863 219.108C284.432 219.76 283.133 220.054 283.649 221.064C284.217 222.175 285.176 223.062 286.611 223.005C288.657 222.925 289.553 222.31 289.985 220.713C290.25 219.736 290.21 218.731 290.14 217.742C290.04 216.311 289.398 215.992 288.172 216.714C287.056 217.371 285.974 218.082 284.863 219.108ZM103.615 245.119C102.613 243.73 102.175 241.96 100.676 240.689C99.9935 242.18 99.5763 243.528 100.575 244.887C101.847 246.618 103.183 248.302 104.462 250.027C105.074 250.852 105.826 251.486 106.748 251.914C107.397 252.216 108.06 252.341 108.85 251.776C106.935 249.711 105.149 247.647 103.615 245.119ZM206.6 128.858C208.244 128.975 209.583 128.439 210.571 126.939C206.276 126.149 202.112 125.78 198.399 128.651C201.051 129.522 203.69 128.868 206.6 128.858ZM224.328 127.309C222.33 126.966 220.34 126.546 218.329 126.315C217.383 126.207 215.806 125.511 216.132 127.683C216.192 128.085 215.342 127.881 215.426 128.491C219.191 128.875 222.944 129.009 226.701 128.985C226.722 128.848 226.743 128.712 226.764 128.575C226.025 128.185 225.286 127.795 224.328 127.309ZM257.401 123.834C257.025 123.543 256.845 122.987 256.24 122.966C255.647 123.389 254.96 123.726 254.783 124.615C255.732 125.543 256.84 126.201 258.126 126.701C258.601 125.551 258.097 124.764 257.401 123.834Z" fill="#F8F7FF"/>
<path d="M164.577 170.496C168.551 174.283 173.248 176.235 178.506 177.138C183.932 178.07 189.416 178.193 194.875 178.673C200.303 179.151 205.738 179.222 211.172 179.445C213.323 179.533 215.468 179.456 217.613 179.318C224.428 178.878 231.294 178.881 238.022 177.583C246.799 175.889 255.171 172.998 262.92 168.453C263.868 167.897 264.878 167.436 265.782 166.818C267.054 165.947 268.009 166.346 268.912 167.369C269.824 168.403 269.343 169.26 268.657 170.166C263.227 177.346 256.456 182.802 248.343 186.774C239.881 190.916 231.024 193.235 221.68 194.172C215.211 194.821 208.801 194.745 202.419 193.74C192.248 192.14 182.224 189.925 172.75 185.71C169.625 184.32 167.083 182.22 164.929 179.576C163.668 178.029 163.73 176.127 163.285 174.364C163.122 173.721 163.039 173.112 162.516 172.642C161.804 172.002 161.479 171.195 162.141 170.398C162.859 169.533 163.718 169.736 164.577 170.496ZM218.448 187.189C217.233 187.609 215.949 187.829 214.823 188.512C213.962 189.035 214.01 189.793 214.165 190.607C214.321 191.424 214.909 191.551 215.617 191.552C218.406 191.556 221.171 191.271 223.935 190.942C224.758 190.844 225.295 190.514 225.434 189.593C225.621 188.36 224.712 187.075 223.274 186.919C221.747 186.753 220.198 186.676 218.448 187.189ZM207.584 187.201C205.258 187.617 203.001 188.156 201.46 190.494C204.674 191.148 207.642 191.438 210.695 191.479C210.695 190.852 210.676 190.46 210.698 190.07C210.825 187.81 210.828 187.811 208.559 187.356C208.316 187.307 208.074 187.252 207.584 187.201ZM236.85 185.981C232.72 185.106 228.704 187.21 228.888 190.226C232.393 189.44 235.921 188.788 239.361 187.328C238.708 186.43 237.938 186.155 236.85 185.981ZM254.571 175.946C252.716 176.689 250.861 177.432 248.943 178.2C249.431 178.873 249.994 179.043 250.492 178.793C251.671 178.201 252.599 178.529 253.453 179.373C253.805 179.721 254.163 179.699 254.522 179.43C256.11 178.24 257.787 177.156 259.12 175.655C259.395 175.345 259.62 174.99 259.388 174.579C259.096 174.064 258.606 174.202 258.198 174.369C257.049 174.839 255.918 175.355 254.571 175.946ZM197.501 188.101C197.249 186.808 196.345 186.699 195.34 187.017C194.195 187.38 193.057 187.7 191.85 187.769C191.479 187.79 191.039 187.851 190.949 188.462C193.15 189.221 195.419 189.6 197.689 189.877C197.99 189.223 197.637 188.785 197.501 188.101ZM182.109 186.143C184.002 186.624 185.794 187.537 188.137 187.639C187.046 185.425 185.178 185.031 183.384 184.587C182.281 184.314 181.159 184.256 180.342 185.345C180.804 185.867 181.408 185.838 182.109 186.143ZM171.56 179.712C171.833 179.472 172.338 179.503 172.432 178.885C170.954 178.503 169.728 177.379 168.025 177.385C168.565 179.606 169.612 180.315 171.56 179.712ZM246.186 183.76C245.109 184.335 243.744 184.424 243.009 185.593C245.473 185.159 247.461 183.733 249.54 182.473C248.492 182.872 247.445 183.27 246.186 183.76Z" fill="#F8F7FF"/>
<path d="M258.294 154.178C257.63 157.377 256.108 160.034 253.993 162.324C249.954 166.697 245.083 169.569 239.022 169.913C230.339 170.406 223.354 167.183 218.228 160.083C217.848 159.557 217.836 158.978 217.813 158.374C217.42 147.981 225.494 139.523 234.797 137.838C245.357 135.926 256.465 143.467 258.294 154.178ZM245.263 151.901C245.413 157.358 242.634 160.832 237.11 162.068C234.93 162.556 232.839 162.235 230.851 161.25C226.941 159.313 225.371 155.859 224.942 151.408C223.289 153.452 222.79 155.534 222.268 157.601C222.122 158.18 222.561 158.503 222.95 158.832C225.56 161.041 228.58 162.551 231.882 163.199C240.241 164.842 247.466 162.543 253.492 156.477C254.375 155.588 254.454 154.786 253.958 153.685C252.207 149.794 249.221 147.189 245.459 145.396C244.234 144.811 242.96 144.249 241.254 144.312C243.785 146.284 245.056 148.677 245.263 151.901ZM227.962 151.32C228.202 152.434 228.322 153.593 228.713 154.651C229.276 156.174 230.281 157.291 231.821 158.093C233.431 158.931 234.888 158.374 236.454 158.339C241.719 158.222 243.171 154.074 241.757 149.806C240.707 146.636 238.178 145.323 234.863 145.49C231.959 145.637 228.537 148.685 227.962 151.32ZM230.931 142.07C230.107 142.54 229.283 143.011 228.459 143.481C232.113 141.632 235.937 140.713 240.017 140.794C236.94 140.381 233.969 140.685 230.931 142.07Z" fill="#F8F7FF"/>
<path d="M203.046 146.465C205.6 149.569 206.974 153.006 207.239 156.937C207.382 159.074 206.697 160.892 205.517 162.536C200.636 169.332 194.076 173.133 185.633 172.055C177.598 171.029 171.655 166.606 168.669 158.851C167.676 156.272 168.699 153.684 169.705 151.3C172.56 144.538 177.593 140.221 184.907 139.187C192.173 138.159 198.267 140.686 203.046 146.465ZM200.008 158.498C198.84 160.262 197.339 161.674 195.257 162.173C191.332 163.114 187.018 160.8 185.728 157.194C184.289 153.175 185.923 149.03 189.715 147.026C190.02 146.865 190.536 146.839 190.472 146.276C182.979 144.367 175.184 148.864 173.097 156.274C172.802 157.322 172.979 158.169 173.781 158.997C178.031 163.378 183.197 165.446 189.27 165.187C194.3 164.971 198.694 163.146 202.376 159.687C202.835 159.256 203.515 158.8 203.297 158.083C202.905 156.792 202.52 155.458 201.351 154.295C201.134 155.84 200.812 157.136 200.008 158.498ZM190.581 150.001C188.212 151.882 187.644 154.427 189.046 156.879C190.214 158.923 192.778 159.413 194.654 157.974C194.919 157.771 195.27 157.626 195.601 157.569C197.32 157.275 198.149 156.321 198.33 154.529C198.701 150.856 194.232 147.519 190.581 150.001ZM186.682 141.917C184.998 142.254 183.304 142.556 181.705 143.373C188.688 141.521 194.727 143.474 200.212 147.804C196.746 143.632 192.193 141.982 186.682 141.917ZM192.572 167.891C188.295 168.481 184.083 168.224 179.734 166.725C183.212 169.797 191.435 169.923 193.599 167.742C193.252 167.78 193.017 167.805 192.572 167.891Z" fill="#F8F7FF"/>
<path d="M226.434 221.429C229.256 222.009 231.974 222.263 234.73 222.025C237.627 221.774 240.435 221.126 243.188 220.211C243.377 220.149 243.57 220.088 243.766 220.057C244.629 219.92 245.41 220.03 245.693 221.005C245.964 221.938 245.324 222.409 244.602 222.704C242.796 223.44 240.918 223.99 239.005 224.326C232.214 225.521 225.588 224.849 219.173 222.31C218.469 222.031 217.998 222.087 217.422 222.563C214.377 225.085 210.973 226.936 207.062 227.685C202.713 228.518 198.52 227.872 194.512 226.044C193.784 225.712 193.347 225.043 193.734 224.187C194.106 223.364 194.812 223.205 195.624 223.453C197.716 224.094 199.758 224.788 202.001 224.959C206.734 225.318 210.841 223.933 214.579 221.161C215.3 220.627 216 220.059 216.759 219.586C217.811 218.932 218.909 218.942 220.045 219.469C222.043 220.395 224.133 221.045 226.434 221.429Z" fill="#F8F7FF"/>
<path d="M221.837 253.884C219.883 254.397 218.308 253.523 216.694 252.91C216.088 252.68 215.763 252.158 215.9 251.468C216.041 250.753 216.531 250.235 217.21 250.211C219.206 250.14 221.139 249.926 223.054 249.248C224.013 248.908 224.93 250.116 224.675 251.166C224.325 252.607 223.387 253.485 221.837 253.884Z" fill="#F8F7FF"/>
<path d="M237.522 120.369C232.394 120.809 227.635 120.163 223.318 117.394C219.646 115.039 216.986 109.665 221.55 105.227C223.23 103.593 225.229 102.883 227.278 102.192C233.398 100.131 239.544 100.366 245.636 102.35C248.231 103.196 250.607 104.415 252.149 106.843C253.848 109.519 253.614 112.463 251.455 114.81C249.732 116.68 247.734 118.087 245.239 118.785C242.744 119.483 240.288 120.323 237.522 120.369ZM238.023 117.405C239.784 117.05 241.56 116.76 243.3 116.323C245.1 115.871 246.783 115.15 248.242 113.923C251.058 111.555 250.951 108.745 247.935 106.626C246.17 105.387 244.137 104.817 242.101 104.375C238.106 103.508 234.091 103.485 230.077 104.453C227.914 104.974 226.066 105.946 224.251 107.248C222.361 108.603 221.601 110.175 222.507 112.336C223.286 114.193 224.9 115.088 226.581 115.901C230.136 117.621 233.934 117.582 238.023 117.405Z" fill="#F8F7FF"/>
<path d="M238.481 155.411C237.195 156.936 235.743 157.965 233.768 157.609C231.219 157.151 229.629 155.102 229.85 152.763C230.085 150.279 232.112 148.146 234.308 148.074C236.516 148.002 238.787 149.963 239.211 152.321C239.407 153.408 239.075 154.387 238.481 155.411Z" fill="#F8F7FF"/>
<path d="M193.397 157.313C191.486 157.406 190.081 156.435 189.917 154.922C189.778 153.639 189.904 152.339 191.258 151.727C192.724 151.065 194.619 151.71 195.347 152.963C196.07 154.207 195.768 155.647 194.53 156.683C194.232 156.932 193.853 157.083 193.397 157.313Z" fill="#F8F7FF"/>
<path d="M250.331 44.9365C250.428 44.7172 250.436 44.5019 250.355 44.2907C250.274 44.0795 250.123 43.9252 249.904 43.8278L249.356 43.5841C248.742 43.3113 248.195 43.1034 247.716 42.9605C247.251 42.8241 246.888 42.7153 246.626 42.6341L244.093 48.3366L247.163 49.7008C247.748 49.9607 248.171 49.7982 248.43 49.2133L250.331 44.9365ZM247.845 39.8925C249.393 40.2302 250.701 40.6362 251.768 41.1105L252.536 41.4516C253.53 41.8933 254.194 42.5471 254.527 43.413C254.86 44.2788 254.805 45.2089 254.364 46.2032L252.122 51.2477C251.635 52.3443 250.937 53.0673 250.029 53.4167C249.142 53.7579 248.151 53.6849 247.054 53.1977L238.939 49.5921L245.76 34.2393L249.599 35.9447L247.845 39.8925ZM262.335 46.5933L257.365 57.7789L253.527 56.0736L257.181 47.8489L255.536 47.118L256.852 44.1571L262.335 46.5933ZM260.446 40.5015L264.284 42.2068L262.919 45.2774L259.081 43.572L260.446 40.5015ZM269.884 52.9678C269.109 52.6235 268.167 52.38 267.058 52.2371L263.403 60.4618L259.565 58.7565L264.73 47.1322L268.129 48.6427L267.861 49.8367C268.75 49.6888 269.598 49.6717 270.405 49.7853C271.234 49.8908 271.897 50.054 272.394 50.2749L273.381 50.7134C274.375 51.1552 275.039 51.809 275.372 52.6748C275.705 53.5407 275.651 54.4707 275.209 55.465L271.409 64.0187L267.57 62.3134L271.079 54.4176C271.176 54.1983 271.184 53.983 271.103 53.7719C271.022 53.5607 270.871 53.4064 270.652 53.3089L269.884 52.9678ZM281.336 67.3793C279.788 67.0416 278.48 66.6356 277.413 66.1613L276.645 65.8202C275.651 65.3785 274.987 64.7247 274.654 63.8588C274.321 62.993 274.375 62.0629 274.817 61.0686L276.766 56.6821C277.253 55.5855 277.941 54.8665 278.828 54.5253C279.736 54.1759 280.738 54.2448 281.835 54.7321L289.95 58.3377L284.493 70.6199C284.051 71.6142 283.397 72.2779 282.531 72.611C281.665 72.9442 280.735 72.8898 279.741 72.4481C277.445 71.4281 274.951 70.145 272.259 68.5987L273.526 65.7475C276.222 67.2077 278.293 68.2593 279.741 68.9025C279.96 68.9999 280.175 69.008 280.386 68.9268C280.597 68.8455 280.752 68.6952 280.849 68.4759L281.336 67.3793ZM279.825 63.6877C280.746 64.0969 281.656 64.4136 282.555 64.6377L284.796 59.5932L281.725 58.2289C281.14 57.9691 280.718 58.1316 280.458 58.7165L278.85 62.3353C278.753 62.5546 278.745 62.7699 278.826 62.9811C278.907 63.1923 279.058 63.3466 279.277 63.444L279.825 63.6877ZM304.948 69.2035C305.045 68.9842 305.053 68.7689 304.972 68.5578C304.891 68.3466 304.741 68.1923 304.521 68.0948L303.973 67.8512C303.359 67.5783 302.812 67.3705 302.333 67.2275C301.868 67.0911 301.505 66.9823 301.244 66.9011L298.71 72.6036L301.78 73.9679C302.365 74.2277 302.788 74.0652 303.048 73.4804L304.948 69.2035ZM302.462 64.1596C304.01 64.4973 305.318 64.9033 306.385 65.3775L307.153 65.7186C308.147 66.1604 308.811 66.8142 309.144 67.68C309.477 68.5459 309.423 69.4759 308.981 70.4702L306.74 75.5147C306.252 76.6113 305.555 77.3343 304.647 77.6837C303.76 78.025 302.768 77.952 301.671 77.4647L293.556 73.8591L300.378 58.5063L304.216 60.2117L302.462 64.1596ZM316.952 70.8604L311.982 82.046L308.144 80.3406L311.798 72.1159L310.153 71.385L311.469 68.4242L316.952 70.8604ZM315.063 64.7685L318.901 66.4739L317.537 69.5444L313.698 67.8391L315.063 64.7685ZM324.502 77.2349C323.727 76.8906 322.784 76.647 321.675 76.5042L318.02 84.7289L314.182 83.0235L319.347 71.3993L322.747 72.9097L322.479 74.1038C323.367 73.9559 324.215 73.9387 325.023 74.0523C325.851 74.1578 326.514 74.321 327.011 74.5419L327.998 74.9804C328.992 75.4222 329.656 76.076 329.989 76.9419C330.322 77.8077 330.268 78.7378 329.826 79.7321L326.026 88.2858L322.188 86.5804L325.696 78.6847C325.793 78.4653 325.801 78.2501 325.72 78.0389C325.639 77.8277 325.489 77.6734 325.269 77.576L324.502 77.2349ZM335.954 91.6463C334.405 91.3086 333.098 90.9026 332.03 90.4284L331.263 90.0873C330.268 89.6455 329.605 88.9917 329.272 88.1259C328.938 87.26 328.993 86.3299 329.434 85.3357L331.383 80.9492C331.871 79.8525 332.558 79.1336 333.445 78.7923C334.353 78.4429 335.355 78.5119 336.452 78.9991L344.567 82.6047L339.11 94.887C338.668 95.8812 338.014 96.5449 337.148 96.8781C336.282 97.2112 335.352 97.1569 334.358 96.7151C332.063 95.6952 329.569 94.412 326.877 92.8658L328.143 90.0145C330.839 91.4747 332.91 92.5264 334.358 93.1695C334.577 93.267 334.792 93.2751 335.003 93.1938C335.215 93.1126 335.369 92.9623 335.466 92.743L335.954 91.6463ZM334.442 87.9547C335.364 88.364 336.273 88.6807 337.172 88.9048L339.413 83.8603L336.343 82.496C335.758 82.2361 335.335 82.3986 335.075 82.9835L333.468 86.6024C333.37 86.8217 333.362 87.0369 333.443 87.2481C333.525 87.4593 333.675 87.6136 333.894 87.7111L334.442 87.9547Z" fill="white"/>
</svg>
